<svg xmlns="http://www.w3.org/2000/svg" viewBox="0 0 50 36.1"><defs><style>.cls-1{fill:#f89a1d;}.cls-2{fill:#fff;}</style></defs><title>Contact_1</title><g id="Calque_2" data-name="Calque 2"><g id="Calque_2-2" data-name="Calque 2"><path class="cls-1" d="M29.33,0H45.94C48.68,0,50,1.27,50,3.9V21.31c0,2.58-1.33,3.89-4,3.89H12.49c-2.62,0-4-1.33-4-3.9V3.89C8.54,1.33,9.89,0,12.5,0Zm17.2,5.46c0-1.56-1.14-2.36-2.24-2A6.52,6.52,0,0,0,43.13,4c-4.3,2.32-8.61,4.63-12.89,7a1.75,1.75,0,0,1-1.95,0q-6.7-3.69-13.47-7.29a1.78,1.78,0,0,0-2.6.53A1.62,1.62,0,0,0,13,6.56c5.08,2.76,10.16,5.53,15.28,8.21a2.76,2.76,0,0,0,2,0A20.43,20.43,0,0,0,33,13.33c4.09-2.21,8.18-4.39,12.24-6.64A5.68,5.68,0,0,0,46.53,5.46Z"/><path class="cls-2" d="M35.06,26.5l-5-5a3.35,3.35,0,0,0-5.58,1.26,3.42,3.42,0,0,1-3.95,2.16C16.9,24,12,19.3,11.14,15.53a3.26,3.26,0,0,1,2.16-4A3.34,3.34,0,0,0,14.56,6l-5-5A3.6,3.6,0,0,0,4.67,1L1.25,4.38C-2.16,8,1.61,17.5,10.06,26s18,12.41,21.58,8.81l3.42-3.42A3.58,3.58,0,0,0,35.06,26.5Z"/></g></g></svg>