<svg xmlns="http://www.w3.org/2000/svg" viewBox="0 0 50 50.04"><defs><style>.cls-1{fill:#f89a1d;}.cls-2{fill:#fff;}</style></defs><title>Nous</title><g id="Calque_2" data-name="Calque 2"><g id="Calque_2-2" data-name="Calque 2"><path class="cls-1" d="M33.29,25.48c-9.38,0-16.72,7.59-16.72,17.3A2.25,2.25,0,0,0,18.82,45H47.75A2.25,2.25,0,0,0,50,42.78C50,33.07,42.66,25.48,33.29,25.48Zm-12,15.05a12.13,12.13,0,0,1,24.06,0Z"/><path class="cls-1" d="M45.9,41.53a12.6,12.6,0,0,0-25.19,0Z"/><path class="cls-2" d="M16.72,30.49C7.34,30.49,0,38.08,0,47.79A2.25,2.25,0,0,0,2.25,50H31.18a2.25,2.25,0,0,0,2.25-2.25C33.43,38.08,26.09,30.49,16.72,30.49Zm-12,15a12.14,12.14,0,0,1,24.06,0Z"/><path class="cls-2" d="M29.33,46.54a12.59,12.59,0,0,0-25.18,0Z"/><circle class="cls-2" cx="16.73" cy="15.9" r="6.87"/><path class="cls-2" d="M16.72,26.86A10.93,10.93,0,1,0,5.79,15.93,10.92,10.92,0,0,0,16.72,26.86Zm0-17.37a6.42,6.42,0,1,1-6.42,6.42A6.43,6.43,0,0,1,16.72,9.49Z"/><path class="cls-1" d="M33.29,21.85A10.93,10.93,0,1,0,22.36,10.93,10.92,10.92,0,0,0,33.29,21.85Zm0-17.37a6.42,6.42,0,1,1-6.43,6.42A6.43,6.43,0,0,1,33.29,4.48Z"/><circle class="cls-1" cx="33.28" cy="10.91" r="6.87"/></g></g></svg>