<svg xmlns="http://www.w3.org/2000/svg" viewBox="0 0 50 39.81"><defs><style>.cls-1{fill:#fff;}.cls-2{fill:#f89a1d;}</style></defs><title>Les services_1</title><g id="Calque_2" data-name="Calque 2"><g id="Calque_2-2" data-name="Calque 2"><path class="cls-1" d="M38.8,27.48l-.36-3.3L31.66,17.4,25,6.07,16.78,4.49,12.86.57a1.46,1.46,0,0,0-2.07,0L.43,10.92A1.48,1.48,0,0,0,.43,13a20.68,20.68,0,0,1,5.34,9.24,23.51,23.51,0,0,0,7.5,12l4.52,3.81A7.32,7.32,0,0,0,25,39.38a7.24,7.24,0,0,0,1.52-.77l10.35-6.78a4.38,4.38,0,0,0,1.93-4.35Z"/><path class="cls-2" d="M49.57,12.86,45.45,17a21.66,21.66,0,0,1-6.57,10.45l-.08.07a4.36,4.36,0,0,0-1.23-2.43l-6.78-6.78a7.31,7.31,0,0,1-5.22-.93l-1.51,1.51a7.33,7.33,0,0,1-10.35,0,1.47,1.47,0,0,1,0-2.07L24,6.52a9.41,9.41,0,0,1,1-.9,9.68,9.68,0,0,1,8.31-1.37L37.14.43a1.47,1.47,0,0,1,2.07,0L49.57,10.79a1.46,1.46,0,0,1,0,2.07Z"/><path class="cls-2" d="M49.57,12.86,45.45,17a21.66,21.66,0,0,1-6.57,10.45l-.08.07a4.36,4.36,0,0,0-1.23-2.43l-6.78-6.78a7.31,7.31,0,0,1-5.22-.93l-.57.58V5.62a9.68,9.68,0,0,1,8.31-1.37L37.14.43a1.47,1.47,0,0,1,2.07,0L49.57,10.79a1.46,1.46,0,0,1,0,2.07Z"/></g></g></svg>